<?xml version="1.0" encoding="UTF-8"?>
<svg width="40px" height="30px" viewBox="0 0 40 30" version="1.1" xmlns="http://www.w3.org/2000/svg" xmlns:xlink="http://www.w3.org/1999/xlink">
    <!-- Generator: Sketch 40.3 (33839) - http://www.bohemiancoding.com/sketch -->
    <title>Shape</title>
    <desc>Created with Sketch.</desc>
    <defs></defs>
    <g id="Page-1" stroke="none" stroke-width="1" fill="none" fill-rule="evenodd">
        <path d="M39.8515844,0.240259983 C39.706404,0.0615548447 39.4813076,-0.0217964326 39.2568772,0.00487597615 C39.2055979,0.00754321702 39.1576484,0.0162117499 39.107701,0.0308815746 L0.491690919,10.5471455 C0.207989613,10.6244955 0.00819995979,10.879217 0.000208373677,11.1732803 C-0.00711724692,11.4673436 0.179353096,11.7320673 0.458392644,11.8240871 L14.5881829,16.4597517 L13.3241803,26.5832644 C13.290882,26.8499885 13.4207453,27.1107113 13.6531673,27.2440734 C13.7563919,27.3034195 13.870938,27.3327591 13.9848181,27.3327591 C14.1280007,27.3327591 14.2711833,27.2867492 14.3897251,27.1953962 L19.5609473,23.2305427 L24.0941745,29.715272 C24.219376,29.894644 24.4231615,30 24.6396003,30 C24.6542515,30 24.6695687,29.9993332 24.6848859,29.9986664 C24.9179739,29.9826629 25.1250891,29.8459668 25.2316436,29.6372552 L39.9248406,0.964415879 C40.0473783,0.729698683 40.0180758,0.44563753 39.8515844,0.240259983 L39.8515844,0.240259983 Z M35.226454,2.47007335 L15.2248459,15.2648278 L2.98639772,11.2499635 L35.226454,2.47007335 L35.226454,2.47007335 Z M14.8432476,25.1682932 L15.763612,17.7980398 L18.7970849,22.1369739 L14.8432476,25.1682932 L14.8432476,25.1682932 Z M24.5530248,28.0442456 L16.2617542,16.1843591 L37.639247,2.50941515 L24.5530248,28.0442456 L24.5530248,28.0442456 Z" id="Shape" fill="#FE895D"></path>
    </g>
</svg>