<?xml version="1.0" encoding="UTF-8"?>
<svg width="57px" height="65px" viewBox="0 0 57 65" version="1.1" xmlns="http://www.w3.org/2000/svg" xmlns:xlink="http://www.w3.org/1999/xlink">
    <!-- Generator: Sketch 40.3 (33839) - http://www.bohemiancoding.com/sketch -->
    <title>Group 5</title>
    <desc>Created with Sketch.</desc>
    <defs></defs>
    <g id="Page-1" stroke="none" stroke-width="1" fill="none" fill-rule="evenodd">
        <g id="10.Contacts-(message-send)" transform="translate(-1427.000000, -523.000000)">
            <g id="Group-5" transform="translate(1427.000000, 523.000000)">
                <path d="M20.2237262,55.7800753 C8.51997189,52.2336781 0,41.3605993 0,28.49962 C0,12.7606751 12.7597251,0 28.49924,0 C44.2387549,0 57,12.7599151 57,28.49962 C57,40.8038832 49.2014995,51.2878694 38.2780608,55.2782884 L29,64.5563492 L20.2237262,55.7800753 Z" id="Combined-Shape" fill="#FF8A5E"></path>
                <path d="M25.1023614,14.0023771 L19,20.4609488 L19,46 L19.0004488,46 L25.1023614,39.5419038 L25.1023614,14.0023771 Z M45,14 L26.3558655,14 L26.3558655,20.4647521 L38.9052682,20.4647521 L45,14.0023771 L45,14 Z M26.3558655,24.3165996 L26.3558655,30.7808763 L29.1667127,30.7808763 L35.2574052,24.32278 L35.2574052,24.3165996 L26.3558655,24.3165996 Z" id="Combined-Shape" fill="#FFFFFF"></path>
            </g>
        </g>
    </g>
</svg>