<?xml version="1.0" encoding="UTF-8"?>
<svg width="40px" height="38px" viewBox="0 0 40 38" version="1.1" xmlns="http://www.w3.org/2000/svg" xmlns:xlink="http://www.w3.org/1999/xlink">
    <!-- Generator: Sketch 40.3 (33839) - http://www.bohemiancoding.com/sketch -->
    <title>Combined Shape</title>
    <desc>Created with Sketch.</desc>
    <defs></defs>
    <g id="Page-1" stroke="none" stroke-width="1" fill="none" fill-rule="evenodd">
        <path d="M28.3969466,0 L11.6030534,0 C9.98433281,0 8.66628888,1.2521 8.66628888,2.78983333 L8.66628888,35.2095333 C8.66628888,36.7479 9.98433281,38 11.6030534,38 L28.3962799,38 C30.0156672,38 31.3337111,36.7479 31.3337111,35.2101667 L31.3337111,2.78983333 C31.3337111,1.2521 30.0156672,0 28.3969466,0 L28.3969466,0 Z M9.99966666,5.06666667 L30.0003333,5.06666667 L30.0003333,29.1333333 L9.99966666,29.1333333 L9.99966666,5.06666667 L9.99966666,5.06666667 Z M11.6030534,1.26666667 L28.3962799,1.26666667 C29.280976,1.26666667 30.0003333,1.95003333 30.0003333,2.78983333 L30.0003333,3.8 L9.99966666,3.8 L9.99966666,2.78983333 C9.99966666,1.95003333 10.719024,1.26666667 11.6030534,1.26666667 L11.6030534,1.26666667 Z M28.3969466,36.7333333 L11.6030534,36.7333333 C10.719024,36.7333333 9.99966666,36.0499667 9.99966666,35.2101667 L9.99966666,30.4 L30.0003333,30.4 L30.0003333,35.2101667 C30.0003333,36.0499667 29.280976,36.7333333 28.3969466,36.7333333 Z M20,31.0333333 C18.5292843,31.0333333 17.3332444,32.1695333 17.3332444,33.5666667 C17.3332444,34.9638 18.5292843,36.1 20,36.1 C21.4707157,36.1 22.6667556,34.9638 22.6667556,33.5666667 C22.6667556,32.1695333 21.4707157,31.0333333 20,31.0333333 Z M20,34.8333333 C19.2646422,34.8333333 18.6666222,34.2652333 18.6666222,33.5666667 C18.6666222,32.8681 19.2646422,32.3 20,32.3 C20.7353578,32.3 21.3333778,32.8681 21.3333778,33.5666667 C21.3333778,34.2652333 20.7353578,34.8333333 20,34.8333333 Z M17.3332444,3.16666667 L20,3.16666667 C20.368679,3.16666667 20.6666889,2.88356667 20.6666889,2.53333333 C20.6666889,2.1831 20.368679,1.9 20,1.9 L17.3332444,1.9 C16.9645655,1.9 16.6665556,2.1831 16.6665556,2.53333333 C16.6665556,2.88356667 16.9645655,3.16666667 17.3332444,3.16666667 Z M22.0000667,3.16666667 L22.6667556,3.16666667 C23.0354345,3.16666667 23.3334444,2.88356667 23.3334444,2.53333333 C23.3334444,2.1831 23.0354345,1.9 22.6667556,1.9 L22.0000667,1.9 C21.6313877,1.9 21.3333778,2.1831 21.3333778,2.53333333 C21.3333778,2.88356667 21.6313877,3.16666667 22.0000667,3.16666667 Z M37.7419247,2.8937 C37.4812494,2.64606667 37.059902,2.64606667 36.7992266,2.8937 C36.5385513,3.14133333 36.5385513,3.5416 36.7992266,3.78923333 C39.2899763,6.15536667 39.2899763,10.0054 36.7992266,12.3721667 C36.5385513,12.6198 36.5385513,13.0200667 36.7992266,13.2677 C36.929231,13.3912 37.0999033,13.4532667 37.2705757,13.4532667 C37.441248,13.4532667 37.6119204,13.3912 37.7419247,13.2677 C40.7526918,10.4082 40.7526918,5.75383333 37.7419247,2.8937 Z M34.9344978,4.33516667 C34.6738225,4.08753333 34.2524751,4.08753333 33.9917997,4.33516667 C33.7311244,4.5828 33.7311244,4.98306667 33.9917997,5.2307 C34.8164939,6.01413333 35.270509,7.05786667 35.270509,8.16873333 C35.270509,9.2796 34.8164939,10.3227 33.9917997,11.1061333 C33.7311244,11.3537667 33.7311244,11.7540333 33.9917997,12.0016667 C34.1218041,12.1251667 34.2924764,12.1872333 34.4631488,12.1872333 C34.6338211,12.1872333 34.8044935,12.1251667 34.9344978,12.0016667 C36.0112004,10.9794667 36.6038868,9.6178 36.6038868,8.16873333 C36.6038868,6.71966667 36.0118671,5.35736667 34.9344978,4.33516667 Z M3.20077336,3.78923333 C3.46144871,3.5416 3.46144871,3.14133333 3.20077336,2.8937 C2.940098,2.64606667 2.51875063,2.64606667 2.25807527,2.8937 C-0.752691756,5.75383333 -0.752691756,10.4075667 2.25807527,13.2677 C2.3880796,13.3912 2.55875196,13.4532667 2.72942431,13.4532667 C2.90009667,13.4532667 3.07076903,13.3912 3.20077336,13.2677 C3.46144871,13.0200667 3.46144871,12.6198 3.20077336,12.3721667 C0.709356979,10.0060333 0.709356979,6.156 3.20077336,3.78923333 Z M6.00820027,4.16036667 C5.74752492,3.91273333 5.32617754,3.91273333 5.06550218,4.16036667 C3.98879963,5.18256667 3.3961132,6.54423333 3.3961132,7.9933 C3.3961132,9.44236667 3.98879963,10.8040333 5.06550218,11.8268667 C5.19550652,11.9503667 5.36617887,12.0124333 5.53685123,12.0124333 C5.70752358,12.0124333 5.87819594,11.9503667 6.00820027,11.8268667 C6.26887563,11.5792333 6.26887563,11.1789667 6.00820027,10.9313333 C5.18350612,10.1479 4.72949098,9.10416667 4.72949098,7.9933 C4.72949098,6.88243333 5.18283943,5.83933333 6.00820027,5.0559 C6.26820894,4.8089 6.26820894,4.408 6.00820027,4.16036667 Z" id="Combined-Shape" fill="#FE895D"></path>
    </g>
</svg>