<?xml version="1.0" encoding="UTF-8"?>
<svg width="34px" height="39px" viewBox="0 0 34 39" version="1.1" xmlns="http://www.w3.org/2000/svg" xmlns:xlink="http://www.w3.org/1999/xlink">
    <!-- Generator: Sketch 40.3 (33839) - http://www.bohemiancoding.com/sketch -->
    <title>Group 7</title>
    <desc>Created with Sketch.</desc>
    <defs></defs>
    <g id="Page-1" stroke="none" stroke-width="1" fill="none" fill-rule="evenodd">
        <g id="Group-7" fill="#FE895D">
            <path d="M20.2851011,2.73398066 C23.9259723,2.98857518 27.2378425,4.75847359 29.6106891,7.71757208 C31.9835408,10.6765969 33.1385266,14.4771762 32.8628631,18.4193476 C32.8399666,18.7467817 33.0664893,19.029343 33.3689826,19.0504954 C33.6714759,19.0716478 33.9351189,18.8233622 33.9580154,18.4959281 C34.2558285,14.2370014 33.0077952,10.1307052 30.4437446,6.9333291 C27.8796363,3.73580094 24.3013797,1.82331322 20.3679464,1.54826077 C20.0655211,1.52711313 19.80181,1.77539395 19.7789136,2.10282808 C19.7560171,2.43026221 19.9826078,2.71282827 20.2851011,2.73398066 Z M32.8237928,30.9539292 L27.1975671,23.9378391 C26.70748,23.3266841 26.0247406,22.9613042 25.2748673,22.908868 C24.5249941,22.8564317 23.798048,23.1232368 23.227674,23.6602371 L21.7379699,25.0627757 C20.4991717,26.2290893 18.6250957,26.0981152 17.5606781,24.770671 L12.3440005,18.265301 C11.2795149,16.9378521 11.4213944,14.9088799 12.6602606,13.7425711 L14.1499648,12.3400325 C15.3272306,11.231582 15.46206,9.30343241 14.4505177,8.04192555 L8.83020715,1.03313173 C8.34018287,0.422055189 7.65744347,0.056675275 6.90757024,0.00423903083 C6.15769701,-0.0481972134 5.43074578,0.218681535 4.85554245,0.760228574 C2.03103876,3.41946496 0.320648454,7.09819904 0.0395157879,11.1185835 C-0.241616878,15.1389679 0.940147197,19.0199411 3.36706884,22.046393 L12.8579099,33.8817867 C15.3626042,37.0052236 18.818646,38.7211874 22.3786547,38.9699054 C25.9396837,39.2186948 29.6049454,37.9993689 32.5231038,35.2520266 C33.0935407,34.7151047 33.438859,33.972317 33.4956262,33.1605071 C33.5524564,32.3487757 33.31388,31.5650841 32.8237928,30.9539292 Z M5.57873927,1.64986781 C5.92652472,1.32243198 6.36983741,1.15968104 6.8270805,1.1916546 C7.28445964,1.22363766 7.70080749,1.44650191 7.99957003,1.81914878 L13.6198806,8.82794261 C14.2368434,9.59731572 14.1546254,10.7730885 13.4365907,11.4491095 L12.7639958,12.0823496 L4.92587067,2.30794753 C5.13579512,2.08203006 5.35315069,1.86225676 5.57873927,1.64986781 Z M13.6908893,33.0977486 L4.19991736,21.2622717 C1.96412141,18.47424 0.875467817,14.8990621 1.13445594,11.1953593 C1.34285667,8.21509011 2.40432416,5.43908284 4.16913124,3.18938111 L11.9286035,12.8657005 C10.2453679,14.4669582 10.0562523,17.2359538 11.5107957,19.0498178 L16.7274733,25.5551878 C18.1821579,27.3689876 20.7388863,27.5528039 22.4372792,25.9703678 L30.2021636,35.6533562 C24.9188363,39.2663017 17.867591,38.3063943 13.6908893,33.0977486 Z M31.8007736,34.3617913 C31.5762826,34.5731469 31.3466627,34.7737829 31.1129518,34.965474 L23.2691733,25.1839419 L23.9418363,24.5507066 C24.2896269,24.2231971 24.7329345,24.0605198 25.1901776,24.0924934 C25.6474887,24.1244717 26.0639045,24.3473407 26.3626671,24.7199876 L31.9888928,31.7360777 C32.2877182,32.1088029 32.4332573,32.5866304 32.3986346,33.0817585 C32.364085,33.5768177 32.1533935,34.0297351 31.8007736,34.3617913 Z M20.0665524,5.85375559 C19.7641271,5.83260795 19.500416,6.08088877 19.4775196,6.4083229 C19.4546232,6.73575703 19.6811406,7.01839198 19.9836339,7.03954437 C22.5607007,7.21989845 24.9048139,8.47260607 26.5842505,10.5669192 C28.2637499,12.6613107 29.0812701,15.351425 28.8861561,18.1416852 C28.8632597,18.4691194 29.0897823,18.7516807 29.3922756,18.772833 C29.6947689,18.7939854 29.958412,18.5456999 29.9813084,18.2182657 C30.1985721,15.1112502 29.2880043,12.115419 27.4173791,9.78260732 C25.5466757,7.44993817 22.9361812,6.0545676 20.0665524,5.85375559 Z M19.6820256,11.3451722 C21.1953713,11.4510697 22.5717904,12.1866649 23.5578067,13.41634 C24.5438961,14.6459461 25.0238878,16.2255171 24.9093759,17.8640918 C24.8864795,18.1915259 25.1130753,18.4740183 25.4155006,18.4951659 C25.7179939,18.5163183 25.9816369,18.2680327 26.0045333,17.9405986 C26.1411898,15.9853422 25.5681505,14.1000544 24.3908673,12.6320233 C23.2135893,11.1639186 21.5707786,10.2858077 19.7649388,10.1594571 C19.4625136,10.1383095 19.1988025,10.3865903 19.1759061,10.7140244 C19.1530096,11.0414585 19.3795323,11.3240198 19.6820256,11.3451722 Z" id="Combined-Shape"></path>
        </g>
    </g>
</svg>