<?xml version="1.0" encoding="UTF-8"?>
<svg width="34px" height="43px" viewBox="0 0 34 43" version="1.1" xmlns="http://www.w3.org/2000/svg" xmlns:xlink="http://www.w3.org/1999/xlink">
    <!-- Generator: Sketch 40.3 (33839) - http://www.bohemiancoding.com/sketch -->
    <title>Group 6</title>
    <desc>Created with Sketch.</desc>
    <defs></defs>
    <g id="Page-1" stroke="none" stroke-width="1" fill="none" fill-rule="evenodd">
        <g id="Group-6" fill="#FC875B">
            <path d="M33.9070805,40.5717598 L29.5757801,27.3569863 C29.3291671,26.6046543 28.6420857,26.0993203 27.8659244,26.0993203 L25.130336,26.0993203 C25.2596825,25.8940625 25.3880429,25.6864531 25.5150063,25.4763242 C28.185264,21.0559746 29.5391292,16.7958672 29.5391292,12.8144199 C29.5388827,5.7485625 23.914035,0 17.000242,0 C10.0864489,0 4.46160124,5.7485625 4.46160124,12.8145039 C4.46160124,16.7960352 5.81554862,21.0560586 8.48572415,25.4764082 C8.61268753,25.6865371 8.74096575,25.8940625 8.87031226,26.0994043 L6.13414864,26.0994043 C5.35798738,26.0994043 4.67090593,26.6047383 4.42421073,27.3570703 L0.0929925758,40.5716758 C-0.0908372541,41.1323555 0.0012831032,41.7535879 0.339194708,42.2334746 C0.677106313,42.7134453 1.2243226,43 1.80284831,43 L32.1971425,43 C32.7757504,43 33.3228845,42.7135293 33.6608783,42.2334746 C33.9987899,41.7536719 34.0907459,41.1323555 33.9070805,40.5717598 L33.9070805,40.5717598 Z M5.77947294,12.8145039 C5.77947294,6.49123633 10.8130575,1.34694141 17.000242,1.34694141 C23.1873443,1.34694141 28.2209288,6.49123633 28.2209288,12.8145039 C28.2209288,21.5058789 21.1648874,29.6727715 18.1311611,32.7806973 C17.8289143,33.0903477 17.4273155,33.2609199 17.0001598,33.2609199 C16.5730862,33.2609199 16.1713231,33.0904316 15.8692406,32.7806973 C12.8355143,29.6727715 5.77947294,21.5058789 5.77947294,12.8145039 L5.77947294,12.8145039 Z M22.7123615,29.5430996 L26.241204,29.5430996 L28.5895746,38.2772227 L5.41041627,38.2772227 L7.75878688,29.5430996 L11.2881224,29.5430996 C12.6177454,31.2585645 13.9119501,32.6826875 14.9361214,33.7319043 C15.4873644,34.2966992 16.2203827,34.6077773 17.0001598,34.6077773 C17.7798547,34.6077773 18.512873,34.2966992 19.064116,33.7319043 C20.0885338,32.6826875 21.3827385,31.2585645 22.7123615,29.5430996 L22.7123615,29.5430996 Z M32.5910167,41.446793 C32.4986498,41.5778926 32.3550866,41.6530586 32.1971425,41.6530586 L1.80284831,41.6530586 C1.64482204,41.6530586 1.50125891,41.5778926 1.40889202,41.446793 C1.31652514,41.3156934 1.29244729,41.1526797 1.34265741,40.9994922 L5.67387556,27.7848027 C5.74027453,27.5823164 5.92525484,27.4461777 6.13406646,27.4461777 L9.75642628,27.4461777 C9.93121664,27.7008184 10.106911,27.9506719 10.2830162,28.1961582 L7.45325299,28.1961582 C7.04162866,28.1961582 6.6779135,28.4793535 6.56886469,28.885082 L4.00025986,38.4385566 C3.9238353,38.7229277 3.98029087,39.0205684 4.15532776,39.2551367 C4.33028248,39.4897051 4.5961249,39.6241641 4.88464816,39.6241641 L29.1151783,39.6241641 C29.4037838,39.6241641 29.6697084,39.4896211 29.8445809,39.2550527 C30.0195356,39.0204844 30.0759912,38.7227598 29.9995666,38.4384727 L27.431044,28.885082 C27.321913,28.4794375 26.95828,28.1962422 26.5466557,28.1962422 L23.7173034,28.1962422 C23.8934086,27.9508398 24.0691029,27.7009023 24.2438933,27.4462617 L27.86576,27.4462617 C28.0746538,27.4462617 28.259552,27.5823164 28.3258688,27.7848027 L32.6572513,40.9996602 C32.7074614,41.1527637 32.6833835,41.3156934 32.5910167,41.446793 Z M22.4358361,12.8144199 C22.4358361,9.7513418 19.9973996,7.25927344 17.000242,7.25927344 C14.0030022,7.25927344 11.5645656,9.7513418 11.5645656,12.8144199 C11.5645656,15.877498 14.0030022,18.3695664 17.000242,18.3695664 C19.9974817,18.3695664 22.4358361,15.877498 22.4358361,12.8144199 Z M12.8825195,12.8144199 C12.8825195,10.4939316 14.7297751,8.60621484 17.000242,8.60621484 C19.270791,8.60621484 21.1178822,10.4940156 21.1178822,12.8144199 C21.1178822,15.1348242 19.270791,17.022625 17.000242,17.022625 C14.7296929,17.022625 12.8825195,15.1349082 12.8825195,12.8144199 Z" id="Combined-Shape"></path>
        </g>
    </g>
</svg>