<?xml version="1.0" encoding="utf-8"?>
<!-- Generator: Adobe Illustrator 19.0.0, SVG Export Plug-In . SVG Version: 6.00 Build 0)  -->
<svg version="1.1" id="Шар_1" xmlns="http://www.w3.org/2000/svg" xmlns:xlink="http://www.w3.org/1999/xlink" x="0px" y="0px"
	 viewBox="0 0 64 64.1" style="enable-background:new 0 0 64 64.1;" xml:space="preserve">
<style type="text/css">
	.st0{fill:#FFFFFF;}
</style>
<g>
	<path id="Combined-Shape_1_" class="st0" d="M62.9,62.1h-1.1V10.7c0-0.4-0.2-0.7-0.6-1L42,0.3c-0.3-0.1-0.7-0.1-1,0.1
		s-0.5,0.5-0.5,0.8V9L22.7,0.2c-0.3-0.1-0.7-0.1-1,0.1s-0.5,0.5-0.5,0.8v7.7L3.5,0.1C3.2,0,2.8,0,2.5,0.2S2,0.7,2,1v60.9H1
		c-0.6,0-1,0.4-1,1.1s0.4,1.1,1,1.1h62c0.6,0,1-0.4,1-1.1S63.4,62.1,62.9,62.1z M46.8,30.1c0.6,0,1-0.4,1-1.1v-1.6
		c0-0.6-0.4-1.1-1-1.1s-1,0.4-1,1.1V29C45.8,29.7,46.2,30.1,46.8,30.1z M51.1,30.1c0.6,0,1-0.4,1-1.1v-1.6c0-0.6-0.4-1.1-1-1.1
		s-1,0.4-1,1.1V29C50.1,29.7,50.5,30.1,51.1,30.1z M55.4,30.1c0.6,0,1-0.4,1-1.1v-1.6c0-0.6-0.4-1.1-1-1.1s-1,0.4-1,1.1V29
		C54.3,29.7,54.8,30.1,55.4,30.1z M46.8,36.7c0.6,0,1-0.4,1-1.1V34c0-0.6-0.4-1.1-1-1.1s-1,0.4-1,1.1v1.6
		C45.8,36.3,46.2,36.7,46.8,36.7z M51.1,36.7c0.6,0,1-0.4,1-1.1V34c0-0.6-0.4-1.1-1-1.1s-1,0.4-1,1.1v1.6
		C50.1,36.3,50.5,36.7,51.1,36.7z M55.4,36.7c0.6,0,1-0.4,1-1.1V34c0-0.6-0.4-1.1-1-1.1s-1,0.4-1,1.1v1.6
		C54.3,36.3,54.8,36.7,55.4,36.7z M46.8,43.2c0.6,0,1-0.4,1-1.1v-1.6c0-0.6-0.4-1.1-1-1.1s-1,0.4-1,1.1v1.6
		C45.8,42.7,46.2,43.2,46.8,43.2z M51.1,43.2c0.6,0,1-0.4,1-1.1v-1.6c0-0.6-0.4-1.1-1-1.1s-1,0.4-1,1.1v1.6
		C50.1,42.7,50.5,43.2,51.1,43.2z M55.4,43.2c0.6,0,1-0.4,1-1.1v-1.6c0-0.6-0.4-1.1-1-1.1s-1,0.4-1,1.1v1.6
		C54.3,42.7,54.8,43.2,55.4,43.2z M46.8,49.7c0.6,0,1-0.4,1-1.1V47c0-0.6-0.4-1.1-1-1.1s-1,0.4-1,1.1v1.6
		C45.8,49.3,46.2,49.7,46.8,49.7z M51.1,49.7c0.6,0,1-0.4,1-1.1V47c0-0.6-0.4-1.1-1-1.1s-1,0.4-1,1.1v1.6
		C50.1,49.3,50.5,49.7,51.1,49.7z M55.4,49.7c0.6,0,1-0.4,1-1.1V47c0-0.6-0.4-1.1-1-1.1s-1,0.4-1,1.1v1.6
		C54.3,49.3,54.8,49.7,55.4,49.7z M46.8,56.3c0.6,0,1-0.4,1-1.1v-1.6c0-0.6-0.4-1.1-1-1.1s-1,0.4-1,1.1v1.6
		C45.8,55.7,46.2,56.3,46.8,56.3z M51.1,56.3c0.6,0,1-0.4,1-1.1v-1.6c0-0.6-0.4-1.1-1-1.1s-1,0.4-1,1.1v1.6
		C50.1,55.7,50.5,56.3,51.1,56.3z M55.4,56.3c0.6,0,1-0.4,1-1.1v-1.6c0-0.6-0.4-1.1-1-1.1s-1,0.4-1,1.1v1.6
		C54.3,55.7,54.8,56.3,55.4,56.3z M46.8,23.7c0.6,0,1-0.4,1-1.1V21c0-0.6-0.4-1.1-1-1.1s-1,0.4-1,1.1v1.6
		C45.8,23.1,46.2,23.7,46.8,23.7z M51.1,23.7c0.6,0,1-0.4,1-1.1V21c0-0.6-0.4-1.1-1-1.1s-1,0.4-1,1.1v1.6
		C50.1,23.1,50.5,23.7,51.1,23.7z M55.4,23.7c0.6,0,1-0.4,1-1.1V21c0-0.6-0.4-1.1-1-1.1s-1,0.4-1,1.1v1.6
		C54.3,23.1,54.8,23.7,55.4,23.7z M46.8,17.3c0.6,0,1-0.4,1-1.1v-1.6c0-0.6-0.4-1.1-1-1.1s-1,0.4-1,1.1v1.6
		C45.8,16.8,46.2,17.3,46.8,17.3z M51.1,17.3c0.6,0,1-0.4,1-1.1v-1.6c0-0.6-0.4-1.1-1-1.1s-1,0.4-1,1.1v1.6
		C50.1,16.8,50.5,17.3,51.1,17.3z M55.4,17.3c0.6,0,1-0.4,1-1.1v-1.6c0-0.6-0.4-1.1-1-1.1s-1,0.4-1,1.1v1.6
		C54.3,16.8,54.8,17.3,55.4,17.3z M59.6,11.4v50.8H42.5V2.9L59.6,11.4z M27.5,30.1c0.6,0,1-0.4,1-1.1v-1.6c0-0.6-0.4-1.1-1-1.1
		s-1,0.4-1,1.1V29C26.5,29.7,26.9,30.1,27.5,30.1z M31.7,30.1c0.6,0,1-0.4,1-1.1v-1.6c0-0.6-0.4-1.1-1-1.1c-0.6,0-1,0.4-1,1.1V29
		C30.7,29.7,31.1,30.1,31.7,30.1z M36,30.1c0.6,0,1-0.4,1-1.1v-1.6c0-0.6-0.4-1.1-1-1.1s-1,0.4-1,1.1V29C35,29.7,35.5,30.1,36,30.1z
		 M27.5,36.7c0.6,0,1-0.4,1-1.1V34c0-0.6-0.4-1.1-1-1.1s-1,0.4-1,1.1v1.6C26.5,36.3,26.9,36.7,27.5,36.7z M31.7,36.7
		c0.6,0,1-0.4,1-1.1V34c0-0.6-0.4-1.1-1-1.1c-0.6,0-1,0.4-1,1.1v1.6C30.7,36.3,31.1,36.7,31.7,36.7z M36,36.7c0.6,0,1-0.4,1-1.1V34
		c0-0.6-0.4-1.1-1-1.1s-1,0.4-1,1.1v1.6C35,36.3,35.5,36.7,36,36.7z M27.5,43.2c0.6,0,1-0.4,1-1.1v-1.6c0-0.6-0.4-1.1-1-1.1
		s-1,0.4-1,1.1v1.6C26.5,42.7,26.9,43.2,27.5,43.2z M31.7,43.2c0.6,0,1-0.4,1-1.1v-1.6c0-0.6-0.4-1.1-1-1.1c-0.6,0-1,0.4-1,1.1v1.6
		C30.7,42.7,31.1,43.2,31.7,43.2z M36,43.2c0.6,0,1-0.4,1-1.1v-1.6c0-0.6-0.4-1.1-1-1.1s-1,0.4-1,1.1v1.6C35,42.7,35.5,43.2,36,43.2
		z M27.5,49.7c0.6,0,1-0.4,1-1.1V47c0-0.6-0.4-1.1-1-1.1s-1,0.4-1,1.1v1.6C26.5,49.3,26.9,49.7,27.5,49.7z M31.7,49.7
		c0.6,0,1-0.4,1-1.1V47c0-0.6-0.4-1.1-1-1.1c-0.6,0-1,0.4-1,1.1v1.6C30.7,49.3,31.1,49.7,31.7,49.7z M36,49.7c0.6,0,1-0.4,1-1.1V47
		c0-0.6-0.4-1.1-1-1.1s-1,0.4-1,1.1v1.6C35,49.3,35.5,49.7,36,49.7z M27.5,56.3c0.6,0,1-0.4,1-1.1v-1.6c0-0.6-0.4-1.1-1-1.1
		s-1,0.4-1,1.1v1.6C26.5,55.7,26.9,56.3,27.5,56.3z M31.7,56.3c0.6,0,1-0.4,1-1.1v-1.6c0-0.6-0.4-1.1-1-1.1c-0.6,0-1,0.4-1,1.1v1.6
		C30.7,55.7,31.1,56.3,31.7,56.3z M36,56.3c0.6,0,1-0.4,1-1.1v-1.6c0-0.6-0.4-1.1-1-1.1s-1,0.4-1,1.1v1.6C35,55.7,35.5,56.3,36,56.3
		z M27.5,23.7c0.6,0,1-0.4,1-1.1V21c0-0.6-0.4-1.1-1-1.1s-1,0.4-1,1.1v1.6C26.5,23.1,26.9,23.7,27.5,23.7z M31.7,23.7
		c0.6,0,1-0.4,1-1.1V21c0-0.6-0.4-1.1-1-1.1c-0.6,0-1,0.4-1,1.1v1.6C30.7,23.1,31.1,23.7,31.7,23.7z M36,23.7c0.6,0,1-0.4,1-1.1V21
		c0-0.6-0.4-1.1-1-1.1s-1,0.4-1,1.1v1.6C35,23.1,35.5,23.7,36,23.7z M27.5,17.3c0.6,0,1-0.4,1-1.1v-1.6c0-0.6-0.4-1.1-1-1.1
		s-1,0.4-1,1.1v1.6C26.5,16.8,26.9,17.3,27.5,17.3z M31.7,17.3c0.6,0,1-0.4,1-1.1v-1.6c0-0.6-0.4-1.1-1-1.1c-0.6,0-1,0.4-1,1.1v1.6
		C30.7,16.8,31.1,17.3,31.7,17.3z M36,17.3c0.6,0,1-0.4,1-1.1v-1.6c0-0.6-0.4-1.1-1-1.1s-1,0.4-1,1.1v1.6C35,16.8,35.5,17.3,36,17.3
		z M23.2,2.9l17.2,8.5v50.8H23.2V10.7V2.9z M8.2,26.4c-0.6,0-1,0.4-1,1.1v1.6c0,0.6,0.4,1.1,1,1.1s1-0.4,1-1.1v-1.6
		C9.3,26.9,8.9,26.4,8.2,26.4z M12.5,26.4c-0.6,0-1,0.4-1,1.1v1.6c0,0.6,0.4,1.1,1,1.1s1-0.4,1-1.1v-1.6
		C13.5,26.9,13.1,26.4,12.5,26.4z M16.8,26.4c-0.6,0-1,0.4-1,1.1v1.6c0,0.6,0.4,1.1,1,1.1s1-0.4,1-1.1v-1.6
		C17.8,26.9,17.4,26.4,16.8,26.4z M8.2,33c-0.6,0-1,0.4-1,1.1v1.6c0,0.6,0.4,1.1,1,1.1s1-0.4,1-1.1v-1.6C9.3,33.4,8.9,33,8.2,33z
		 M12.5,33c-0.6,0-1,0.4-1,1.1v1.6c0,0.6,0.4,1.1,1,1.1s1-0.4,1-1.1v-1.6C13.5,33.4,13.1,33,12.5,33z M16.8,33c-0.6,0-1,0.4-1,1.1
		v1.6c0,0.6,0.4,1.1,1,1.1s1-0.4,1-1.1v-1.6C17.8,33.4,17.4,33,16.8,33z M8.2,20c-0.6,0-1,0.4-1,1.1v1.6c0,0.6,0.4,1.1,1,1.1
		s1-0.4,1-1.1v-1.6C9.3,20.4,8.9,20,8.2,20z M12.5,20c-0.6,0-1,0.4-1,1.1v1.6c0,0.6,0.4,1.1,1,1.1s1-0.4,1-1.1v-1.6
		C13.5,20.4,13.1,20,12.5,20z M16.8,20c-0.6,0-1,0.4-1,1.1v1.6c0,0.6,0.4,1.1,1,1.1s1-0.4,1-1.1v-1.6C17.8,20.4,17.4,20,16.8,20z
		 M8.2,13.6c-0.6,0-1,0.4-1,1.1v1.6c0,0.6,0.4,1.1,1,1.1s1-0.4,1-1.1v-1.6C9.3,14,8.9,13.6,8.2,13.6z M12.5,13.6c-0.6,0-1,0.4-1,1.1
		v1.6c0,0.6,0.4,1.1,1,1.1s1-0.4,1-1.1v-1.6C13.5,14,13.1,13.6,12.5,13.6z M16.8,13.6c-0.6,0-1,0.4-1,1.1v1.6c0,0.6,0.4,1.1,1,1.1
		s1-0.4,1-1.1v-1.6C17.8,14,17.4,13.6,16.8,13.6z M8.2,39.5c-0.6,0-1,0.4-1,1.1v1.6c0,0.6,0.4,1.1,1,1.1s1-0.4,1-1.1v-1.6
		C9.3,40,8.9,39.5,8.2,39.5z M12.5,39.5c-0.6,0-1,0.4-1,1.1v1.6c0,0.6,0.4,1.1,1,1.1s1-0.4,1-1.1v-1.6C13.5,40,13.1,39.5,12.5,39.5z
		 M16.8,39.5c-0.6,0-1,0.4-1,1.1v1.6c0,0.6,0.4,1.1,1,1.1s1-0.4,1-1.1v-1.6C17.8,40,17.4,39.5,16.8,39.5z M8.2,46
		c-0.6,0-1,0.4-1,1.1v1.6c0,0.6,0.4,1.1,1,1.1s1-0.4,1-1.1v-1.6C9.3,46.5,8.9,46,8.2,46z M12.5,46c-0.6,0-1,0.4-1,1.1v1.6
		c0,0.6,0.4,1.1,1,1.1s1-0.4,1-1.1v-1.6C13.5,46.5,13.1,46,12.5,46z M16.8,46c-0.6,0-1,0.4-1,1.1v1.6c0,0.6,0.4,1.1,1,1.1
		s1-0.4,1-1.1v-1.6C17.8,46.5,17.4,46,16.8,46z M8.2,52.6c-0.6,0-1,0.4-1,1.1v1.6c0,0.6,0.4,1.1,1,1.1s1-0.4,1-1.1v-1.6
		C9.3,53,8.9,52.6,8.2,52.6z M12.5,52.6c-0.6,0-1,0.4-1,1.1v1.6c0,0.6,0.4,1.1,1,1.1s1-0.4,1-1.1v-1.6C13.5,53,13.1,52.6,12.5,52.6z
		 M16.8,52.6c-0.6,0-1,0.4-1,1.1v1.6c0,0.6,0.4,1.1,1,1.1s1-0.4,1-1.1v-1.6C17.8,53,17.4,52.6,16.8,52.6z M4,2.9l17.2,8.5v50.8H4
		V2.9z"/>
</g>
</svg>
