<?xml version="1.0" encoding="utf-8"?>
<!-- Generator: Adobe Illustrator 19.0.0, SVG Export Plug-In . SVG Version: 6.00 Build 0)  -->
<svg version="1.1" id="Шар_1" xmlns="http://www.w3.org/2000/svg" xmlns:xlink="http://www.w3.org/1999/xlink" x="0px" y="0px"
	 viewBox="0 0 62.9 64" style="enable-background:new 0 0 62.9 64;" xml:space="preserve">
<style type="text/css">
	.st0{fill:#FFFFFF;}
</style>
<g>
	<rect id="Rectangle-path" x="6" y="4.7" class="st0" width="18.4" height="2.3"/>
	<rect id="Rectangle-path_1_" x="30.9" y="11.7" class="st0" width="26" height="2.3"/>
	<rect id="Rectangle-path_2_" x="6" y="11.7" class="st0" width="2.1" height="4.7"/>
	<rect id="Rectangle-path_3_" x="11.4" y="11.7" class="st0" width="2.1" height="4.7"/>
	<rect id="Rectangle-path_4_" x="16.8" y="11.7" class="st0" width="2.1" height="4.7"/>
	<rect id="Rectangle-path_5_" x="22.3" y="11.7" class="st0" width="2.1" height="4.7"/>
	<rect id="Rectangle-path_6_" x="6" y="19.8" class="st0" width="2.1" height="4.7"/>
	<rect id="Rectangle-path_7_" x="11.4" y="19.8" class="st0" width="2.1" height="4.7"/>
	<rect id="Rectangle-path_8_" x="16.8" y="19.8" class="st0" width="2.1" height="4.7"/>
	<rect id="Rectangle-path_9_" x="22.3" y="19.8" class="st0" width="2.1" height="4.7"/>
	<rect id="Rectangle-path_10_" x="6" y="28" class="st0" width="2.1" height="4.7"/>
	<rect id="Rectangle-path_11_" x="11.4" y="28" class="st0" width="2.1" height="4.7"/>
	<rect id="Rectangle-path_12_" x="16.8" y="28" class="st0" width="2.1" height="4.7"/>
	<rect id="Rectangle-path_13_" x="22.3" y="28" class="st0" width="2.1" height="4.7"/>
	<rect id="Rectangle-path_14_" x="6" y="36.1" class="st0" width="2.1" height="4.7"/>
	<rect id="Rectangle-path_15_" x="11.4" y="36.1" class="st0" width="2.1" height="4.7"/>
	<rect id="Rectangle-path_16_" x="16.8" y="36.1" class="st0" width="2.1" height="4.7"/>
	<rect id="Rectangle-path_17_" x="22.3" y="36.1" class="st0" width="2.1" height="4.7"/>
	<rect id="Rectangle-path_18_" x="6" y="44.2" class="st0" width="2.1" height="4.7"/>
	<rect id="Rectangle-path_19_" x="11.4" y="44.2" class="st0" width="2.1" height="4.7"/>
	<rect id="Rectangle-path_20_" x="16.8" y="44.2" class="st0" width="2.1" height="4.7"/>
	<rect id="Rectangle-path_21_" x="22.3" y="44.2" class="st0" width="2.1" height="4.7"/>
	<rect id="Rectangle-path_22_" x="6" y="52.4" class="st0" width="2.1" height="4.7"/>
	<rect id="Rectangle-path_23_" x="11.4" y="52.4" class="st0" width="2.1" height="4.7"/>
	<rect id="Rectangle-path_24_" x="16.8" y="52.4" class="st0" width="2.1" height="4.7"/>
	<rect id="Rectangle-path_25_" x="22.3" y="52.4" class="st0" width="2.1" height="4.7"/>
	<rect id="Rectangle-path_26_" x="32" y="18.6" class="st0" width="2.1" height="4.7"/>
	<rect id="Rectangle-path_27_" x="37.4" y="18.6" class="st0" width="2.1" height="4.7"/>
	<rect id="Rectangle-path_28_" x="42.9" y="18.6" class="st0" width="2.1" height="4.7"/>
	<rect id="Rectangle-path_29_" x="48.3" y="18.6" class="st0" width="2.1" height="4.7"/>
	<rect id="Rectangle-path_30_" x="53.7" y="18.6" class="st0" width="2.1" height="4.7"/>
	<rect id="Rectangle-path_31_" x="32" y="26.8" class="st0" width="2.1" height="4.7"/>
	<rect id="Rectangle-path_32_" x="37.4" y="26.8" class="st0" width="2.1" height="4.7"/>
	<rect id="Rectangle-path_33_" x="42.9" y="26.8" class="st0" width="2.1" height="4.7"/>
	<rect id="Rectangle-path_34_" x="48.3" y="26.8" class="st0" width="2.1" height="4.7"/>
	<rect id="Rectangle-path_35_" x="53.7" y="26.8" class="st0" width="2.1" height="4.7"/>
	<rect id="Rectangle-path_36_" x="32" y="34.9" class="st0" width="2.1" height="4.7"/>
	<rect id="Rectangle-path_37_" x="37.4" y="34.9" class="st0" width="2.1" height="4.7"/>
	<rect id="Rectangle-path_38_" x="42.9" y="34.9" class="st0" width="2.1" height="4.7"/>
	<rect id="Rectangle-path_39_" x="48.3" y="34.9" class="st0" width="2.1" height="4.7"/>
	<rect id="Rectangle-path_40_" x="53.7" y="34.9" class="st0" width="2.1" height="4.7"/>
	<rect id="Rectangle-path_41_" x="32" y="43.1" class="st0" width="2.1" height="4.7"/>
	<rect id="Rectangle-path_42_" x="37.4" y="43.1" class="st0" width="2.1" height="4.7"/>
	<rect id="Rectangle-path_43_" x="42.9" y="43.1" class="st0" width="2.1" height="4.7"/>
	<rect id="Rectangle-path_44_" x="48.3" y="43.1" class="st0" width="2.1" height="4.7"/>
	<rect id="Rectangle-path_45_" x="53.7" y="43.1" class="st0" width="2.1" height="4.7"/>
	<path id="Shape_1_" class="st0" d="M61.2,7H34.1h-5.5V0H1.5v61.5H0V64h62.9v-2.5h-1.7V7z M26.6,61.7H3.8V2.4h22.8V61.7L26.6,61.7z
		 M48.3,61.7h-8.7v-7h8.7V61.7L48.3,61.7z M59.1,61.7h-8.7v-9.3h-13v9.3h-8.7V9.3h30.4V61.7L59.1,61.7z"/>
	<rect id="Rectangle-path_46_" x="29.8" y="57.1" class="st0" width="6.5" height="2.3"/>
	<rect id="Rectangle-path_47_" x="51.5" y="57.1" class="st0" width="6.5" height="2.3"/>
</g>
</svg>
