<?xml version="1.0" encoding="utf-8"?>
<!-- Generator: Adobe Illustrator 19.0.0, SVG Export Plug-In . SVG Version: 6.00 Build 0)  -->
<svg version="1.1" id="Шар_1" xmlns="http://www.w3.org/2000/svg" xmlns:xlink="http://www.w3.org/1999/xlink" x="0px" y="0px"
	 viewBox="0 0 64 63.7" style="enable-background:new 0 0 64 63.7;" xml:space="preserve">
<style type="text/css">
	.st0{fill:#FFFFFF;}
</style>
<g>
	<path id="Combined-Shape" class="st0" d="M63,62.1h-3.8V0.9c0-0.6-0.4-0.9-1-0.9H41.5c-0.6,0-1,0.4-1,0.9v23.2l-8.2-3.5V7.5
		c0-0.6-0.4-0.9-1-0.9H14.6c-0.6,0-1,0.4-1,0.9v19.3H4.7c-0.6,0-1,0.4-1,0.9v34.2H1c-0.6,0-1,0.4-1,0.9s0.4,0.9,1,0.9h62
		c0.6,0,1-0.4,1-0.9S63.5,62.1,63,62.1z M57.2,13.4H42.5V8.7h14.7V13.4z M42.5,15.3h14.7v4.6H42.5V15.3z M57.2,1.9v4.7H42.5V1.9
		H57.2z M42.5,21.6h14.7v40.5h-6.3V29.2c0-0.4-0.2-0.7-0.6-0.9L42.6,25L42.5,21.6L42.5,21.6z M36.5,34.9c0.6,0,1-0.4,1-0.9v-1.3
		c0-0.6-0.4-0.9-1-0.9s-1,0.4-1,0.9V34C35.5,34.5,36,34.9,36.5,34.9z M40.7,34.9c0.6,0,1-0.4,1-0.9v-1.3c0-0.6-0.4-0.9-1-0.9
		s-1,0.4-1,0.9V34C39.7,34.5,40.1,34.9,40.7,34.9z M44.8,34.9c0.6,0,1-0.4,1-0.9v-1.3c0-0.6-0.4-0.9-1-0.9s-1,0.4-1,0.9V34
		C43.8,34.5,44.3,34.9,44.8,34.9z M36.5,40.5c0.6,0,1-0.4,1-0.9v-1.3c0-0.6-0.4-0.9-1-0.9s-1,0.4-1,0.9v1.3
		C35.5,40.1,36,40.5,36.5,40.5z M40.7,40.5c0.6,0,1-0.4,1-0.9v-1.3c0-0.6-0.4-0.9-1-0.9s-1,0.4-1,0.9v1.3
		C39.7,40.1,40.1,40.5,40.7,40.5z M44.8,40.5c0.6,0,1-0.4,1-0.9v-1.3c0-0.6-0.4-0.9-1-0.9s-1,0.4-1,0.9v1.3
		C43.8,40.1,44.3,40.5,44.8,40.5z M36.5,46.1c0.6,0,1-0.4,1-0.9v-1.3c0-0.6-0.4-0.9-1-0.9s-1,0.4-1,0.9v1.3
		C35.5,45.7,36,46.1,36.5,46.1z M40.7,46.1c0.6,0,1-0.4,1-0.9v-1.3c0-0.6-0.4-0.9-1-0.9s-1,0.4-1,0.9v1.3
		C39.7,45.7,40.1,46.1,40.7,46.1z M44.8,46.1c0.6,0,1-0.4,1-0.9v-1.3c0-0.6-0.4-0.9-1-0.9s-1,0.4-1,0.9v1.3
		C43.8,45.7,44.3,46.1,44.8,46.1z M36.5,51.7c0.6,0,1-0.4,1-0.9v-1.3c0-0.6-0.4-0.9-1-0.9s-1,0.4-1,0.9v1.3
		C35.5,51.3,36,51.7,36.5,51.7z M40.7,51.7c0.6,0,1-0.4,1-0.9v-1.3c0-0.6-0.4-0.9-1-0.9s-1,0.4-1,0.9v1.3
		C39.7,51.3,40.1,51.7,40.7,51.7z M44.8,51.7c0.6,0,1-0.4,1-0.9v-1.3c0-0.6-0.4-0.9-1-0.9s-1,0.4-1,0.9v1.3
		C43.8,51.3,44.3,51.7,44.8,51.7z M36.5,57.3c0.6,0,1-0.4,1-0.9V55c0-0.6-0.4-0.9-1-0.9s-1,0.4-1,0.9v1.3
		C35.5,56.9,36,57.3,36.5,57.3z M40.7,57.3c0.6,0,1-0.4,1-0.9V55c0-0.6-0.4-0.9-1-0.9s-1,0.4-1,0.9v1.3
		C39.7,56.9,40.1,57.3,40.7,57.3z M44.8,57.3c0.6,0,1-0.4,1-0.9V55c0-0.6-0.4-0.9-1-0.9s-1,0.4-1,0.9v1.3
		C43.8,56.9,44.3,57.3,44.8,57.3z M48.8,29.8v32.3H32.4V22.8L48.8,29.8z M15.6,15.3h14.7v4.6H15.6V15.3z M30.2,8.5v4.7H15.5V8.5
		H30.2z M15.6,21.6h14.7v40.5h-6.1V27.9c0-0.6-0.4-0.9-1-0.9h-7.5L15.6,21.6L15.6,21.6z M9.8,31.7c-0.6,0-1,0.4-1,0.9v1.3
		c0,0.6,0.4,0.9,1,0.9s1-0.4,1-0.9v-1.3C10.8,32,10.4,31.7,9.8,31.7z M13.9,31.7c-0.6,0-1,0.4-1,0.9v1.3c0,0.6,0.4,0.9,1,0.9
		s1-0.4,1-0.9v-1.3C15,32,14.5,31.7,13.9,31.7z M18,31.7c-0.6,0-1,0.4-1,0.9v1.3c0,0.6,0.4,0.9,1,0.9s1-0.4,1-0.9v-1.3
		C19,32,18.6,31.7,18,31.7z M9.8,37.3c-0.6,0-1,0.4-1,0.9v1.3c0,0.6,0.4,0.9,1,0.9s1-0.4,1-0.9v-1.3C10.8,37.6,10.4,37.3,9.8,37.3z
		 M13.9,37.3c-0.6,0-1,0.4-1,0.9v1.3c0,0.6,0.4,0.9,1,0.9s1-0.4,1-0.9v-1.3C15,37.6,14.5,37.3,13.9,37.3z M18,37.3
		c-0.6,0-1,0.4-1,0.9v1.3c0,0.6,0.4,0.9,1,0.9s1-0.4,1-0.9v-1.3C19,37.6,18.6,37.3,18,37.3z M9.8,42.9c-0.6,0-1,0.4-1,0.9v1.3
		c0,0.6,0.4,0.9,1,0.9s1-0.4,1-0.9v-1.3C10.8,43.2,10.4,42.9,9.8,42.9z M13.9,42.9c-0.6,0-1,0.4-1,0.9v1.3c0,0.6,0.4,0.9,1,0.9
		s1-0.4,1-0.9v-1.3C15,43.2,14.5,42.9,13.9,42.9z M18,42.9c-0.6,0-1,0.4-1,0.9v1.3c0,0.6,0.4,0.9,1,0.9s1-0.4,1-0.9v-1.3
		C19,43.2,18.6,42.9,18,42.9z M9.8,48.5c-0.6,0-1,0.4-1,0.9v1.3c0,0.6,0.4,0.9,1,0.9s1-0.4,1-0.9v-1.3C10.8,48.8,10.4,48.5,9.8,48.5
		z M13.9,48.5c-0.6,0-1,0.4-1,0.9v1.3c0,0.6,0.4,0.9,1,0.9s1-0.4,1-0.9v-1.3C15,48.8,14.5,48.5,13.9,48.5z M18,48.5
		c-0.6,0-1,0.4-1,0.9v1.3c0,0.6,0.4,0.9,1,0.9s1-0.4,1-0.9v-1.3C19,48.8,18.6,48.5,18,48.5z M9.8,54c-0.6,0-1,0.4-1,0.9v1.3
		c0,0.6,0.4,0.9,1,0.9s1-0.4,1-0.9V55C10.8,54.4,10.4,54,9.8,54z M13.9,54c-0.6,0-1,0.4-1,0.9v1.3c0,0.6,0.4,0.9,1,0.9s1-0.4,1-0.9
		V55C15,54.4,14.5,54,13.9,54z M18,54c-0.6,0-1,0.4-1,0.9v1.3c0,0.6,0.4,0.9,1,0.9s1-0.4,1-0.9V55C19,54.4,18.6,54,18,54z M5.7,28.8
		h16.4v33.3H5.7V28.8z"/>
</g>
</svg>
