<?xml version="1.0" encoding="utf-8"?>
<!-- Generator: Adobe Illustrator 19.0.0, SVG Export Plug-In . SVG Version: 6.00 Build 0)  -->
<svg version="1.1" id="Шар_1" xmlns="http://www.w3.org/2000/svg" xmlns:xlink="http://www.w3.org/1999/xlink" x="0px" y="0px"
	 viewBox="0 0 72 64.2" style="enable-background:new 0 0 72 64.2;" xml:space="preserve">
<style type="text/css">
	.st0{fill:#FFFFFF;}
</style>
<g>
	<path id="Shape_2_" class="st0" d="M51.3,21.5c-0.5,0-0.9,0.3-0.9,0.9v1c0,0.5,0.4,0.9,0.9,0.9s0.9-0.3,0.9-0.9v-1
		C52.2,21.8,51.7,21.5,51.3,21.5L51.3,21.5z"/>
	<path id="Shape_3_" class="st0" d="M55.6,21.5c-0.5,0-0.9,0.3-0.9,0.9v1c0,0.5,0.4,0.9,0.9,0.9s0.9-0.3,0.9-0.9v-1
		C56.4,21.8,56.1,21.5,55.6,21.5L55.6,21.5z"/>
	<path id="Shape_4_" class="st0" d="M51.3,25.5c-0.5,0-0.9,0.3-0.9,0.9v1c0,0.5,0.4,0.9,0.9,0.9s0.9-0.3,0.9-0.9v-1
		C52.2,26,51.7,25.5,51.3,25.5L51.3,25.5z"/>
	<path id="Shape_5_" class="st0" d="M55.6,25.5c-0.5,0-0.9,0.3-0.9,0.9v1c0,0.5,0.4,0.9,0.9,0.9s0.9-0.3,0.9-0.9v-1
		C56.4,26,56.1,25.5,55.6,25.5L55.6,25.5z"/>
	<path id="Shape_6_" class="st0" d="M51.3,29.7c-0.5,0-0.9,0.3-0.9,0.9v1c0,0.5,0.4,0.9,0.9,0.9s0.9-0.3,0.9-0.9v-1
		C52.2,30,51.7,29.7,51.3,29.7L51.3,29.7z"/>
	<path id="Shape_7_" class="st0" d="M55.6,29.7c-0.5,0-0.9,0.3-0.9,0.9v1c0,0.5,0.4,0.9,0.9,0.9s0.9-0.3,0.9-0.9v-1
		C56.4,30,56.1,29.7,55.6,29.7L55.6,29.7z"/>
	<path id="Shape_8_" class="st0" d="M51.3,33.8c-0.5,0-0.9,0.3-0.9,0.9v1c0,0.5,0.4,0.9,0.9,0.9s0.9-0.3,0.9-0.9v-1
		C52.2,34.3,51.7,33.8,51.3,33.8L51.3,33.8z"/>
	<path id="Shape_9_" class="st0" d="M55.6,33.8c-0.5,0-0.9,0.3-0.9,0.9v1c0,0.5,0.4,0.9,0.9,0.9s0.9-0.3,0.9-0.9v-1
		C56.4,34.3,56.1,33.8,55.6,33.8L55.6,33.8z"/>
	<path id="Shape_10_" class="st0" d="M51.3,38c-0.5,0-0.9,0.3-0.9,0.9v1c0,0.5,0.4,0.9,0.9,0.9s0.9-0.3,0.9-0.9v-1
		C52.2,38.3,51.7,38,51.3,38L51.3,38z"/>
	<path id="Shape_11_" class="st0" d="M55.6,38c-0.5,0-0.9,0.3-0.9,0.9v1c0,0.5,0.4,0.9,0.9,0.9s0.9-0.3,0.9-0.9v-1
		C56.4,38.3,56.1,38,55.6,38L55.6,38z"/>
	<path id="Shape_12_" class="st0" d="M32.4,27.6c0.5,0,0.9-0.3,0.9-0.9v-1.8c0-0.5-0.4-0.9-0.9-0.9c-0.5,0-0.9,0.3-0.9,0.9v1.8
		C31.6,27.2,32,27.6,32.4,27.6L32.4,27.6z"/>
	<path id="Shape_13_" class="st0" d="M36.2,27.6c0.5,0,0.9-0.3,0.9-0.9v-1.8c0-0.5-0.4-0.9-0.9-0.9s-0.9,0.3-0.9,0.9v1.8
		C35.3,27.2,35.7,27.6,36.2,27.6L36.2,27.6z"/>
	<path id="Shape_14_" class="st0" d="M39.9,27.6c0.5,0,0.9-0.3,0.9-0.9v-1.8c0-0.5-0.4-0.9-0.9-0.9S39,24.3,39,24.9v1.8
		C39,27.2,39.5,27.6,39.9,27.6L39.9,27.6z"/>
	<path id="Shape_15_" class="st0" d="M32.4,35.1c0.5,0,0.9-0.3,0.9-0.9v-1.8c0-0.5-0.4-0.9-0.9-0.9c-0.5,0-0.9,0.3-0.9,0.9v1.8
		C31.6,34.7,32,35.1,32.4,35.1L32.4,35.1z"/>
	<path id="Shape_16_" class="st0" d="M36.2,35.1c0.5,0,0.9-0.3,0.9-0.9v-1.8c0-0.5-0.4-0.9-0.9-0.9s-0.9,0.3-0.9,0.9v1.8
		C35.3,34.7,35.7,35.1,36.2,35.1L36.2,35.1z"/>
	<path id="Shape_17_" class="st0" d="M39.9,35.1c0.5,0,0.9-0.3,0.9-0.9v-1.8c0-0.5-0.4-0.9-0.9-0.9S39,31.8,39,32.4v1.8
		C39,34.7,39.5,35.1,39.9,35.1L39.9,35.1z"/>
	<path id="Shape_18_" class="st0" d="M32.4,42.6c0.5,0,0.9-0.3,0.9-0.9v-1.8c0-0.5-0.4-0.9-0.9-0.9c-0.5,0-0.9,0.3-0.9,0.9v1.8
		C31.6,42.1,32,42.6,32.4,42.6L32.4,42.6z"/>
	<path id="Shape_19_" class="st0" d="M36.2,42.6c0.5,0,0.9-0.3,0.9-0.9v-1.8c0-0.5-0.4-0.9-0.9-0.9s-0.9,0.3-0.9,0.9v1.8
		C35.3,42.1,35.7,42.6,36.2,42.6L36.2,42.6z"/>
	<path id="Shape_20_" class="st0" d="M39.9,42.6c0.5,0,0.9-0.3,0.9-0.9v-1.8c0-0.5-0.4-0.9-0.9-0.9S39,39.3,39,39.9v1.8
		C39,42.1,39.5,42.6,39.9,42.6L39.9,42.6z"/>
	<path id="Shape_21_" class="st0" d="M32.4,50c0.5,0,0.9-0.3,0.9-0.9v-1.8c0-0.5-0.4-0.9-0.9-0.9c-0.5,0-0.9,0.3-0.9,0.9v1.8
		C31.6,49.7,32,50,32.4,50L32.4,50z"/>
	<path id="Shape_22_" class="st0" d="M36.2,50c0.5,0,0.9-0.3,0.9-0.9v-1.8c0-0.5-0.4-0.9-0.9-0.9s-0.9,0.3-0.9,0.9v1.8
		C35.3,49.7,35.7,50,36.2,50L36.2,50z"/>
	<path id="Shape_23_" class="st0" d="M39.9,50c0.5,0,0.9-0.3,0.9-0.9v-1.8c0-0.5-0.4-0.9-0.9-0.9S39,46.7,39,47.3v1.8
		C39,49.7,39.5,50,39.9,50L39.9,50z"/>
	<path id="Shape_24_" class="st0" d="M32.4,57.5c0.5,0,0.9-0.3,0.9-0.9v-1.8c0-0.5-0.4-0.9-0.9-0.9c-0.5,0-0.9,0.3-0.9,0.9v1.8
		C31.6,57.1,32,57.5,32.4,57.5L32.4,57.5z"/>
	<path id="Shape_25_" class="st0" d="M36.2,57.5c0.5,0,0.9-0.3,0.9-0.9v-1.8c0-0.5-0.4-0.9-0.9-0.9s-0.9,0.3-0.9,0.9v1.8
		C35.3,57.1,35.7,57.5,36.2,57.5L36.2,57.5z"/>
	<path id="Shape_26_" class="st0" d="M39.9,57.5c0.5,0,0.9-0.3,0.9-0.9v-1.8c0-0.5-0.4-0.9-0.9-0.9S39,54.2,39,54.8v1.8
		C39,57.1,39.5,57.5,39.9,57.5L39.9,57.5z"/>
	<path id="Shape_27_" class="st0" d="M71.3,62.6h-2.7v-2.2c1.5-0.3,2.7-1.7,2.7-3.3c0-1.1-0.5-2.1-1.4-2.7c0.5-0.5,0.8-1.2,0.8-2
		c0-1.6-1.3-2.9-2.9-2.9s-2.9,1.3-2.9,2.9c0,0.8,0.4,1.5,0.8,2c-0.9,0.6-1.4,1.6-1.4,2.7c0,1.6,1.1,2.9,2.5,3.3v2.2h-4.4V43.8
		c0-0.5-0.4-0.9-0.9-0.9h-1.9V18.2c0-0.5-0.4-0.9-0.9-0.9H47.9c-0.5,0-0.9,0.3-0.9,0.9v24.7h-1.4v-24c0-0.5-0.4-0.9-0.9-0.9h-7.6
		v-3.9c0-0.5-0.4-0.9-0.9-0.9h-3c-0.2-1.7-1.2-3.1-2.4-3.8c-0.1-1.9-1.3-3.5-2.8-3.5h-1v-5C27,0.4,26.6,0,26.1,0s-0.9,0.3-0.9,0.9
		v4.9h-1c-1.3,0-2.6,1.7-2.8,3.5c-1.2,0.7-2.2,2.2-2.4,3.8h-2.3c-0.5,0-0.9,0.3-0.9,0.9v22.7h-3.3c-0.5,0-0.9,0.3-0.9,0.9v24.8H6.7
		v-2.2c1.6-0.3,2.8-1.7,2.8-3.4c0-1.1-0.5-2.2-1.4-2.8C8.6,53.5,9,52.8,9,51.9C9,50.3,7.7,49,6,49c-1.6,0-3,1.3-3,2.9
		c0,0.8,0.4,1.6,0.9,2.1c-0.9,0.6-1.4,1.6-1.4,2.8c0,1.6,1.1,2.9,2.6,3.3v2.3H0.9c-0.5,0-0.9,0.3-0.9,0.9s0.4,0.9,0.9,0.9h70.2
		c0.5,0,0.9-0.3,0.9-0.9S71.8,62.6,71.3,62.6L71.3,62.6z M67.9,51.3c0.6,0,1.2,0.5,1.2,1.1s-0.5,1.1-1.2,1.1s-1.2-0.5-1.2-1.1
		C66.8,51.8,67.2,51.3,67.9,51.3L67.9,51.3z M66.1,57.1c0-1,0.8-1.6,1.7-1.6c0.9,0,1.7,0.8,1.7,1.6s-0.7,1.6-1.6,1.6
		S66.1,58.1,66.1,57.1L66.1,57.1z M6.3,51c0.6,0,1.2,0.5,1.2,1.2S7,53.4,6.3,53.4c-0.6,0-1.2-0.5-1.2-1.2C5.1,51.5,5.6,51,6.3,51
		L6.3,51z M4.5,56.9c0-1,0.8-1.7,1.8-1.7s1.8,0.8,1.8,1.7s-0.8,1.7-1.8,1.7S4.5,57.9,4.5,56.9L4.5,56.9z M48.8,19.1H58V43h-9.2V19.1
		L48.8,19.1z M60.7,44.7v17.9h-2.6v-7.4c0-2.8-2.3-5-5.1-5c-2.8,0-5.2,2.2-5.2,5v7.4h-2.3V44.7H60.7L60.7,44.7z M56.4,62.6h-6.7
		v-7.4c0-1.8,1.5-3.3,3.3-3.3s3.3,1.5,3.3,3.3L56.4,62.6L56.4,62.6z M43.9,62.6H29.1V37.8V19.9h14.8V62.6L43.9,62.6z M13.8,48.5
		h13.6V52H13.8V48.5L13.8,48.5z M27.4,46.7H13.8v-3.3h13.6V46.7L27.4,46.7z M13.8,53.7h13.6v3.5H13.8V53.7L13.8,53.7z M24.4,7.7H28
		c0.2,0.1,0.7,0.6,0.9,1.4h-5.3C23.7,8.2,24.3,7.7,24.4,7.7L24.4,7.7z M23.3,10.8h6c0.6,0,1.9,1,2.1,2.5H21.2
		C21.3,11.9,22.6,10.8,23.3,10.8L23.3,10.8z M18,15.1h17.4v3h-7.1c-0.5,0-0.9,0.3-0.9,0.9v17.9H18V15.1L18,15.1z M27.4,38.7v3H13.8
		v-3H27.4L27.4,38.7z M13.8,59h13.6v3.6H13.8V59L13.8,59z"/>
	<path id="Shape_28_" class="st0" d="M20.5,19.8h4.3c0.5,0,0.9-0.3,0.9-0.9S25.3,18,24.8,18h-4.3c-0.5,0-0.9,0.3-0.9,0.9
		S20.1,19.8,20.5,19.8L20.5,19.8z"/>
	<path id="Shape_29_" class="st0" d="M24.8,21.9h-4.3c-0.5,0-0.9,0.3-0.9,0.9s0.4,0.9,0.9,0.9h4.3c0.5,0,0.9-0.3,0.9-0.9
		S25.3,21.9,24.8,21.9L24.8,21.9z"/>
	<path id="Shape_30_" class="st0" d="M24.8,25.7h-4.3c-0.5,0-0.9,0.3-0.9,0.9s0.4,0.9,0.9,0.9h4.3c0.5,0,0.9-0.3,0.9-0.9
		S25.3,25.7,24.8,25.7L24.8,25.7z"/>
	<path id="Shape_31_" class="st0" d="M24.8,29.5h-4.3c-0.5,0-0.9,0.3-0.9,0.9s0.4,0.9,0.9,0.9h4.3c0.5,0,0.9-0.3,0.9-0.9
		S25.3,29.5,24.8,29.5L24.8,29.5z"/>
	<path id="Shape_32_" class="st0" d="M24.8,33.2h-4.3c-0.5,0-0.9,0.3-0.9,0.9S20,35,20.5,35h4.3c0.5,0,0.9-0.3,0.9-0.9
		S25.3,33.2,24.8,33.2L24.8,33.2z"/>
</g>
</svg>
